#!OML:ASF F:\VICON\USERDATA\INSTALL\rory3\rory3.ASF
:FULLY-SPECIFIED
:DEGREES
943
root -1.98418 18.819 -3.76548 0.154134 -3.22776 1.72141
lowerback 11.6019 3.7248 1.84146
upperback 3.46241 5.13701 0.0840376
thorax -2.70858 2.54854 -1.64018
lowerneck -14.2709 -2.10622 -5.8397
upperneck 10.4629 -2.5026 6.15686
head 5.64542 -0.996919 2.67369
rclavicle -4.47266e-015 0
rhumerus 26.0119 -45.8165 -56.4398
rradius 111.948
rwrist -42.6805
rhand -25.9017 7.45152
rfingers 7.12502
rthumb 0.640699 -22.5273
lclavicle -4.47266e-015 0
lhumerus -43.0606 18.3682 47.4294
lradius 31.5636
lwrist 4.04287
lhand -26.2456 12.6977
lfingers 7.12502
lthumb 0.308517 42.6772
rfemur -8.45695 14.5175 19.2848
rtibia 23.5172
rfoot -18.4444 -18.9003
rtoes 7.13723
lfemur -29.9919 -0.744465 -2.36996
ltibia 49.1133
lfoot 1.01282 14.0636
ltoes 1.59657
944
root -1.94067 18.8207 -3.72888 0.318063 -3.24201 1.71319
lowerback 11.4886 3.62793 1.65229
upperback 3.39503 4.98433 0.0204547
thorax -2.73344 2.47229 -1.57603
lowerneck -14.4819 -2.08844 -5.92114
upperneck 10.6498 -2.47246 6.25566
head 5.73985 -0.97429 2.72197
rclavicle -2.6339e-014 6.36111e-015
rhumerus 25.8268 -46.573 -55.1907
rradius 110.218
rwrist -41.8495
rhand -26.0711 7.45413
rfingers 7.12502
rthumb 0.477058 -22.5251
lclavicle -2.6339e-014 6.36111e-015
lhumerus -43.1644 18.2837 47.696
lradius 31.0254
lwrist 3.43425
lhand -26.1943 13.4435
lfingers 7.12502
lthumb 0.35808 43.4229
rfemur -8.34278 14.6552 19.1152
rtibia 23.2438
rfoot -18.5297 -18.9395
rtoes 7.18992
lfemur -28.6497 -1.11535 -2.19125
ltibia 47.0869
lfoot 1.36194 14.7133
ltoes 2.50951
945
root -1.89761 18.8177 -3.6943 0.472918 -3.33708 1.40074
lowerback 11.4059 3.54478 1.72719
upperback 3.29439 4.88347 0.0389859
thorax -2.79211 2.4205 -1.58392
lowerneck -14.4706 -2.03961 -5.95328
upperneck 10.6904 -2.41626 6.35616
head 5.74887 -0.940802 2.76499
rclavicle 7.7526e-015 -1.39149e-014
rhumerus 25.4973 -47.2388 -53.9263
rradius 108.521
rwrist -40.9756
rhand -26.1761 6.80476
rfingers 7.12502
rthumb 0.375708 -23.1746
lclavicle 7.7526e-015 -1.39149e-014
lhumerus -43.2786 18.1507 47.9777
lradius 30.4489
lwrist 2.85918
lhand -26.3084 13.7777
lfingers 7.12502
lthumb 0.247897 43.7573
rfemur -8.2377 14.7117 19.2889
rtibia 22.961
rfoot -18.438 -18.8915
rtoes 6.98274
lfemur -27.3364 -1.33088 -1.66853
ltibia 45.1394
lfoot 1.85395 15.2752
ltoes 3.33444
946
root -1.85146 18.8147 -3.66331 0.672628 -3.45226 1.05526
lowerback 11.3253 3.47626 1.88935
upperback 3.13152 4.81138 0.0179799
thorax -2.90498 2.3815 -1.68764
lowerneck -14.152 -1.95863 -5.85188
upperneck 10.5284 -2.34295 6.399
head 5.63943 -0.903514 2.76848
rclavicle -4.04527e-014 -3.97569e-016
rhumerus 24.8708 -47.8826 -52.5563
rradius 106.922
rwrist -40.1524
rhand -26.0128 5.47451
rfingers 7.12502
rthumb 0.533388 -24.5046
lclavicle -4.04527e-014 -3.97569e-016
lhumerus -43.401 17.8097 48.2829
lradius 29.9584
lwrist 2.31744
lhand -26.4599 13.4929
lfingers 7.12502
lthumb 0.101569 43.4727
rfemur -8.21142 14.6993 19.4627
rtibia 22.6636
rfoot -18.3664 -18.7523
rtoes 6.88519
lfemur -26.1256 -1.54764 -1.12812
ltibia 43.257
lfoot 2.20055 15.7929
ltoes 3.60605
947
root -1.80279 18.8158 -3.63233 0.854362 -3.53103 0.809381
lowerback 11.2148 3.42029 2.01612
upperback 3.04539 4.7482 -0.0543461
thorax -2.92006 2.34909 -1.82048
lowerneck -13.9082 -1.89713 -5.82112
upperneck 10.2488 -2.28729 6.55318
head 5.50923 -0.868921 2.81633
rclavicle -3.81667e-014 1.15295e-014
rhumerus 24.6173 -48.4836 -51.576
rradius 105.237
rwrist -38.9095
rhand -26.0447 5.14176
rfingers 7.12502
rthumb 0.502617 -24.8374
lclavicle -3.81667e-014 1.15295e-014
lhumerus -43.4619 17.5363 48.5527
lradius 29.591
lwrist 1.57917
lhand -26.3541 13.1773
lfingers 7.12502
lthumb 0.20377 43.1569
rfemur -8.18259 14.5584 19.5148
rtibia 22.3773
rfoot -18.2698 -18.5348
rtoes 6.70101
lfemur -24.9417 -1.87395 -0.726268
ltibia 41.4549
lfoot 2.49687 16.3858
ltoes 4.13503
948
root -1.75135 18.8165 -3.60201 1.01782 -3.56453 0.631149
lowerback 11.1118 3.35755 2.06366
upperback 3.08675 4.66522 -0.122665
thorax -2.81451 2.3101 -1.89787
lowerneck -14.2256 -1.87954 -5.79154
upperneck 10.2081 -2.26424 6.64413
head 5.54878 -0.844592 2.84188
rclavicle 7.25564e-015 -2.38542e-015
rhumerus 24.9119 -49.1124 -51.0186
rradius 103.37
rwrist -37.1676
rhand -26.4033 6.05429
rfingers 7.12502
rthumb 0.156254 -23.9254
lclavicle 7.25564e-015 -2.38542e-015
lhumerus -43.3708 17.5623 48.7812
lradius 29.1594
lwrist 0.936155
lhand -26.3368 13.0318
lfingers 7.12502
lthumb 0.220478 43.0115
rfemur -8.14207 14.4983 19.4933
rtibia 22.1016
rfoot -18.1638 -18.4153
rtoes 6.38213
lfemur -23.817 -2.25332 -0.412147
ltibia 39.7399
lfoot 2.92401 17.1023
ltoes 4.74776
949
root -1.70023 18.8195 -3.57072 1.18787 -3.63784 0.561472
lowerback 11.1301 3.30599 1.93017
upperback 3.0613 4.58004 -0.195473
thorax -2.85935 2.2672 -1.89056
lowerneck -14.5947 -1.88605 -5.67305
upperneck 10.337 -2.27445 6.56779
head 5.64912 -0.843576 2.79754
rclavicle -3.29486e-014 -9.14409e-015
rhumerus 24.8576 -49.7782 -50.1557
rradius 101.557
rwrist -35.428
rhand -26.5512 6.58008
rfingers 7.12502
rthumb 0.0133405 -23.3997
lclavicle -3.29486e-014 -9.14409e-015
lhumerus -43.4215 17.7234 48.8045
lradius 28.5881
lwrist 0.0488317
lhand -26.2983 12.9693
lfingers 7.12502
lthumb 0.257648 42.9489
rfemur -8.11094 14.4337 19.3519
rtibia 21.8254
rfoot -17.9993 -18.3586
rtoes 6.23297
lfemur -22.7369 -2.60732 -0.243577
ltibia 38.1168
lfoot 3.20163 17.851
ltoes 5.40951
950
root -1.64716 18.8228 -3.53666 1.33554 -3.71255 0.447556
lowerback 11.1491 3.26744 1.85719
upperback 2.98159 4.51994 -0.255573
thorax -2.95616 2.23537 -1.90915
lowerneck -14.6499 -1.87661 -5.70957
upperneck 10.3492 -2.26606 6.6691
head 5.66334 -0.832391 2.83677
rclavicle -3.42407e-014 2.5842e-015
rhumerus 24.3769 -50.5228 -48.9688
rradius 99.8512
rwrist -33.8363
rhand -25.8403 7.26546
rfingers 7.12502
rthumb 0.699989 -22.7131
lclavicle -3.42407e-014 2.5842e-015
lhumerus -43.6081 18.0065 48.6015
lradius 27.8962
lwrist -1.46064
lhand -26.0725 12.8258
lfingers 7.12502
lthumb 0.47574 42.805
rfemur -8.03859 14.211 19.2493
rtibia 21.5593
rfoot -17.8601 -18.144
rtoes 6.03899
lfemur -21.6658 -2.96502 -0.0721529
ltibia 36.6008
lfoot 3.37003 18.5651
ltoes 6.47253
951
root -1.59308 18.8242 -3.50528 1.45557 -3.6871 0.37026
lowerback 11.147 3.20971 1.73371
upperback 2.90488 4.42888 -0.301831
thorax -3.04465 2.18868 -1.87972
lowerneck -14.4598 -1.83052 -5.80095
upperneck 10.1852 -2.21045 6.84124
head 5.57979 -0.800297 2.91097
rclavicle 2.03754e-014 1.98785e-016
rhumerus 23.8642 -51.2059 -47.7929
rradius 98.185
rwrist -32.2601
rhand -25.1825 7.49831
rfingers 7.12502
rthumb 1.3353 -22.4773
lclavicle 2.03754e-014 1.98785e-016
lhumerus -43.7397 18.1523 48.4883
lradius 27.1707
lwrist -2.64068
lhand -25.9244 12.6616
lfingers 7.12502
lthumb 0.618803 42.6404
rfemur -7.94271 14.1347 19.1183
rtibia 21.3301
rfoot -17.8855 -18.0352
rtoes 6.04887
lfemur -20.6745 -3.48356 0.0628867
ltibia 35.1645
lfoot 3.54698 19.2738
ltoes 8.16794
952
root -1.53694 18.8211 -3.48052 1.58216 -3.67512 0.204993
lowerback 11.2006 3.15782 1.65905
upperback 2.85234 4.35231 -0.320571
thorax -3.13612 2.14909 -1.85333
lowerneck -14.3915 -1.79991 -5.66552
upperneck 10.0623 -2.18604 6.78065
head 5.52616 -0.789303 2.87077
rclavicle 4.57702e-014 -1.0138e-014
rhumerus 23.3979 -51.8427 -46.7052
rradius 96.5014
rwrist -30.6856
rhand -25.1122 7.53609
rfingers 7.12502
rthumb 1.40316 -22.439
lclavicle 4.57702e-014 -1.0138e-014
lhumerus -43.7832 18.0709 48.5584
lradius 26.6093
lwrist -3.14887
lhand -25.884 12.6817
lfingers 7.12502
lthumb 0.65774 42.6604
rfemur -7.89903 14.3042 19.0934
rtibia 21.1453
rfoot -17.9236 -18.1691
rtoes 6.00336
lfemur -19.791 -4.00486 0.305722
ltibia 33.8146
lfoot 3.97974 19.678
ltoes 8.10086
